<svg xmlns="http://www.w3.org/2000/svg" xmlns:xlink="http://www.w3.org/1999/xlink" width="1200" height="1200" viewBox="0 0 1200 1200"><rect width="100%" height="100%" fill="#359aa6"></rect><g transform="translate(600 600) scale(0.69 0.69) rotate(0) translate(-600 -600)" style="fill:#1a1a1a"><svg fill="#1a1a1a" xmlns:x="http://ns.adobe.com/Extensibility/1.0/" xmlns:i="http://ns.adobe.com/AdobeIllustrator/10.0/" xmlns:graph="http://ns.adobe.com/Graphs/1.0/" xmlns="http://www.w3.org/2000/svg" xmlns:xlink="http://www.w3.org/1999/xlink" version="1.1" x="0px" y="0px" viewBox="0 0 100 100" style="enable-background:new 0 0 100 100;" xml:space="preserve"><g><g i:extraneous="self"><g><path d="M20.2,75.7h8.1c1.7,0,3-1.4,3-3V55.8c0-1.7-1.4-3-3-3h-8.1c-1.7,0-3,1.4-3,3v16.9C17.1,74.3,18.5,75.7,20.2,75.7z"></path><path d="M41,75.7h8.1c1.7,0,3-1.4,3-3V41.4c0-1.7-1.4-3-3-3H41c-1.7,0-3,1.4-3,3v31.2C37.9,74.3,39.3,75.7,41,75.7z"></path><path d="M61.8,75.7h8.1c1.7,0,3-1.4,3-3V27.1c0-1.7-1.4-3-3-3h-8.1c-1.7,0-3,1.4-3,3v45.6C58.7,74.3,60.1,75.7,61.8,75.7z"></path><path d="M82.6,75.7h8.1c1.7,0,3-1.4,3-3V12.7c0-1.7-1.4-3-3-3h-8.1c-1.7,0-3,1.4-3,3v59.9C79.5,74.3,80.9,75.7,82.6,75.7z"></path><path d="M93.7,82.7H10.1V13.6c0-2.1-1.7-3.8-3.8-3.8s-3.8,1.7-3.8,3.8v73c0,2.1,1.7,3.8,3.8,3.8h87.4c2.1,0,3.8-1.7,3.8-3.8     C97.5,84.4,95.8,82.7,93.7,82.7z"></path></g></g></g></svg></g></svg>