<svg xmlns="http://www.w3.org/2000/svg" xmlns:xlink="http://www.w3.org/1999/xlink" width="1200" height="1200" viewBox="0 0 1200 1200"><rect width="100%" height="100%" fill="#dd8561"></rect><g transform="translate(600 600) scale(0.69 0.69) rotate(0) translate(-600 -600)" style="fill:#1a1a1a"><svg fill="#1a1a1a" xmlns="http://www.w3.org/2000/svg" xmlns:xlink="http://www.w3.org/1999/xlink" xml:space="preserve" version="1.1" style="shape-rendering:geometricPrecision;text-rendering:geometricPrecision;image-rendering:optimizeQuality;" viewBox="0 0 333 333" x="0px" y="0px" fill-rule="evenodd" clip-rule="evenodd"><defs><style type="text/css">
   
    .fil0 {fill:#1a1a1a}
   
  </style></defs><g><path class="fil0" d="M148 8c61,0 111,50 111,112 0,61 -50,111 -111,111 -62,0 -112,-50 -112,-111 0,-62 50,-112 112,-112zm52 223l25 -19c4,-2 8,-2 11,2l60 80c2,4 1,9 -2,11l-25 19c-3,2 -8,1 -10,-2l-60 -81c-3,-3 -2,-8 1,-10zm-52 -191c44,0 79,36 79,80 0,44 -35,79 -79,79 -44,0 -80,-35 -80,-79 0,-44 36,-80 80,-80z"></path></g></svg></g></svg>